<svg width="842" height="105" viewBox="0 0 842 105" fill="none" xmlns="http://www.w3.org/2000/svg">
<path d="M312.15 84.0899V24.4199H322.57V73.6699H362.71V84.0899H312.15Z" fill="#E86A14"/>
<path d="M393.88 84.0899C377.22 84.0899 364.91 70.9599 364.91 53.6399C364.91 36.3199 377.22 24.4199 393.88 24.4199H408.41C425.65 24.4199 437.63 36.3199 437.63 53.6399C437.63 70.9599 425.4 84.0899 408.41 84.0899H393.88ZM408.4 73.6699C419.4 73.6699 427.2 65.3799 427.2 54.1399C427.2 42.8999 419.4 34.8499 408.4 34.8499H393.87C383.2 34.8499 375.32 42.8099 375.32 54.1399C375.32 65.4699 383.12 73.6699 393.87 73.6699H408.4Z" fill="#E86A14"/>
<path d="M517.32 84.0899V24.4199H551.88C568.71 24.4199 580.93 36.3199 580.93 53.6399C580.93 70.9599 568.7 84.0899 551.88 84.0899H517.32ZM551.87 73.6699C562.62 73.6699 570.5 65.3799 570.5 54.1399C570.5 42.8999 562.62 34.8499 551.87 34.8499H527.66V73.6699H551.87Z" fill="#E86A14"/>
<path d="M587.63 84.0899V24.4199H640.9V34.8399H597.97V73.6599H640.98V84.0799H587.63V84.0899ZM605.6 58.1599V49.3799H638.68V58.1599H605.6Z" fill="#E86A14"/>
<path d="M706.91 84.0897L691.81 67.5097H669.48V58.3197H694.35C701.82 58.3197 705.76 54.0497 705.76 46.3397C705.76 38.6297 701.49 34.8497 694.35 34.8497H661.85V84.0997H651.51V24.4297H694.35C707.97 24.4297 716.02 32.8897 716.02 46.1797C716.02 56.0297 711.42 63.0097 703.71 65.9597L721.68 84.0997H706.91V84.0897Z" fill="#E86A14"/>
<path d="M726.97 84.0897V73.6697H771.7C777.28 73.6697 780.4 70.5497 780.4 65.8697C780.4 60.7797 777.28 58.1597 771.7 58.1597H744.29C733.04 58.1597 726.07 51.0197 726.07 41.1697C726.07 31.3197 732.55 24.4297 744.46 24.4297H787.31V34.8497H744.46C739.7 34.8497 736.91 37.6397 736.91 42.1597C736.91 46.6797 739.78 49.3797 744.38 49.3797H771.71C783.78 49.3797 790.26 55.0397 790.26 66.6197C790.26 76.6297 784.19 84.0997 771.71 84.0997H726.98L726.97 84.0897Z" fill="#E86A14"/>
<path d="M73.18 84.0899C56.52 84.0899 44.21 70.9599 44.21 53.6399C44.21 36.3199 56.52 24.4199 73.18 24.4199H105.52V34.8399H73.18C62.51 34.8399 54.63 42.7999 54.63 54.1299C54.63 65.4599 62.43 73.6599 73.18 73.6599H105.52V84.0799H73.18V84.0899Z" fill="#5A595B"/>
<path d="M173.54 84.0904L164.59 69.0704L159.58 60.6204L146.28 38.3004L119.2 84.1004H107.3L141.61 26.9704C142.84 24.9204 144.4 23.6104 146.7 23.6104C149 23.6104 150.48 24.9204 151.71 26.9704L186.1 84.1004H173.54V84.0904Z" fill="#5A595B"/>
<path d="M187.67 84.0907V73.6707H232.4C237.98 73.6707 241.1 70.5507 241.1 65.8707C241.1 60.7807 237.98 58.1607 232.4 58.1607H204.99C193.74 58.1607 186.77 51.0207 186.77 41.1707C186.77 31.3207 193.25 24.4307 205.16 24.4307H248.01V34.8507H205.16C200.4 34.8507 197.61 37.6407 197.61 42.1607C197.61 46.6807 200.48 49.3807 205.08 49.3807H232.41C244.48 49.3807 250.96 55.0407 250.96 66.6207C250.96 76.6307 244.89 84.1007 232.41 84.1007H187.68L187.67 84.0907Z" fill="#5A595B"/>
<path d="M273.1 84.0899V34.8399H250.45V24.4199H306.18V34.8399H283.53V84.0899H273.11H273.1Z" fill="#5A595B"/>
<path d="M457.53 33.6799V24.4199H492.41V33.6799H457.53Z" fill="#E86A14"/>
<path d="M442.63 84.1002H454.23L474.11 50.3601L494.25 84.1002H506.22L479.07 38.8102C479.07 38.8102 477.64 35.9102 474.52 35.9102C471.4 35.9102 469.84 38.8601 469.84 38.8601L442.63 84.1002Z" fill="#E86A14"/>
</svg>
